<mxfile modified="2024-05-12T14:46:52.575Z" host="Electron" agent="Mozilla/5.0 (Windows NT 10.0; Win64; x64) AppleWebKit/537.36 (KHTML, like Gecko) draw.io/24.2.5 Chrome/120.0.6099.109 Electron/28.1.0 Safari/537.36" etag="drmqLcZl103SlwQ7NlLa" version="24.2.5" type="device">
  <diagram id="Ht1M8jgEwFfnCIfOTk4-" name="Page-1">
    <mxGraphModel dx="1687" dy="984" grid="1" gridSize="10" guides="1" tooltips="1" connect="1" arrows="1" fold="1" page="1" pageScale="1" pageWidth="1169" pageHeight="827" math="0" shadow="0">
      <root>
        <mxCell id="0" />
        <mxCell id="1" parent="0" />
        <mxCell id="ZWRmlS2SUOm_svUnGcR8-1" value="" style="rounded=0;whiteSpace=wrap;html=1;" vertex="1" parent="1">
          <mxGeometry x="40" y="40" width="740" height="580" as="geometry" />
        </mxCell>
        <mxCell id="ZWRmlS2SUOm_svUnGcR8-28" value="" style="rounded=1;whiteSpace=wrap;html=1;" vertex="1" parent="1">
          <mxGeometry x="270" y="52.8" width="480" height="357.2" as="geometry" />
        </mxCell>
        <mxCell id="ZWRmlS2SUOm_svUnGcR8-4" value="API GATEWAY" style="rounded=1;whiteSpace=wrap;html=1;" vertex="1" parent="1">
          <mxGeometry x="50" y="280" width="170" height="100" as="geometry" />
        </mxCell>
        <mxCell id="ZWRmlS2SUOm_svUnGcR8-6" value="" style="image;sketch=0;aspect=fixed;html=1;points=[];align=center;fontSize=12;image=img/lib/mscae/Docker.svg;" vertex="1" parent="1">
          <mxGeometry x="180" y="280" width="40" height="32.8" as="geometry" />
        </mxCell>
        <mxCell id="ZWRmlS2SUOm_svUnGcR8-7" value="" style="image;aspect=fixed;html=1;points=[];align=center;fontSize=12;image=img/lib/azure2/compute/Azure_Spring_Cloud.svg;" vertex="1" parent="1">
          <mxGeometry x="120" y="360" width="40" height="40" as="geometry" />
        </mxCell>
        <mxCell id="ZWRmlS2SUOm_svUnGcR8-12" value="DISCOVERY SERVER" style="rounded=1;whiteSpace=wrap;html=1;" vertex="1" parent="1">
          <mxGeometry x="50" y="110" width="200" height="100" as="geometry" />
        </mxCell>
        <mxCell id="ZWRmlS2SUOm_svUnGcR8-13" value="" style="image;sketch=0;aspect=fixed;html=1;points=[];align=center;fontSize=12;image=img/lib/mscae/Docker.svg;" vertex="1" parent="1">
          <mxGeometry x="210" y="112.8" width="40" height="32.8" as="geometry" />
        </mxCell>
        <mxCell id="ZWRmlS2SUOm_svUnGcR8-14" value="" style="image;aspect=fixed;html=1;points=[];align=center;fontSize=12;image=img/lib/azure2/compute/Azure_Spring_Cloud.svg;" vertex="1" parent="1">
          <mxGeometry x="115" y="200" width="40" height="40" as="geometry" />
        </mxCell>
        <mxCell id="ZWRmlS2SUOm_svUnGcR8-17" value="MICROSERVICIO DE USUARIOS" style="rounded=1;whiteSpace=wrap;html=1;" vertex="1" parent="1">
          <mxGeometry x="290" y="80" width="170" height="100" as="geometry" />
        </mxCell>
        <mxCell id="ZWRmlS2SUOm_svUnGcR8-18" value="" style="image;sketch=0;aspect=fixed;html=1;points=[];align=center;fontSize=12;image=img/lib/mscae/Docker.svg;" vertex="1" parent="1">
          <mxGeometry x="420" y="80" width="40" height="32.8" as="geometry" />
        </mxCell>
        <mxCell id="ZWRmlS2SUOm_svUnGcR8-19" value="" style="image;aspect=fixed;html=1;points=[];align=center;fontSize=12;image=img/lib/azure2/compute/Azure_Spring_Cloud.svg;" vertex="1" parent="1">
          <mxGeometry x="355" y="170" width="40" height="40" as="geometry" />
        </mxCell>
        <mxCell id="ZWRmlS2SUOm_svUnGcR8-20" value="MICROSERVICIO DE CUENTAS" style="rounded=1;whiteSpace=wrap;html=1;" vertex="1" parent="1">
          <mxGeometry x="540" y="80" width="170" height="100" as="geometry" />
        </mxCell>
        <mxCell id="ZWRmlS2SUOm_svUnGcR8-21" value="" style="image;sketch=0;aspect=fixed;html=1;points=[];align=center;fontSize=12;image=img/lib/mscae/Docker.svg;" vertex="1" parent="1">
          <mxGeometry x="670" y="80" width="40" height="32.8" as="geometry" />
        </mxCell>
        <mxCell id="ZWRmlS2SUOm_svUnGcR8-22" value="" style="image;aspect=fixed;html=1;points=[];align=center;fontSize=12;image=img/lib/azure2/compute/Azure_Spring_Cloud.svg;" vertex="1" parent="1">
          <mxGeometry x="605" y="170" width="40" height="40" as="geometry" />
        </mxCell>
        <mxCell id="ZWRmlS2SUOm_svUnGcR8-23" value="MICROSERVICIO DE TARJETAS" style="rounded=1;whiteSpace=wrap;html=1;" vertex="1" parent="1">
          <mxGeometry x="540" y="265" width="170" height="100" as="geometry" />
        </mxCell>
        <mxCell id="ZWRmlS2SUOm_svUnGcR8-24" value="" style="image;sketch=0;aspect=fixed;html=1;points=[];align=center;fontSize=12;image=img/lib/mscae/Docker.svg;" vertex="1" parent="1">
          <mxGeometry x="670" y="265" width="40" height="32.8" as="geometry" />
        </mxCell>
        <mxCell id="ZWRmlS2SUOm_svUnGcR8-25" value="" style="image;aspect=fixed;html=1;points=[];align=center;fontSize=12;image=img/lib/azure2/compute/Azure_Spring_Cloud.svg;" vertex="1" parent="1">
          <mxGeometry x="605" y="355" width="40" height="40" as="geometry" />
        </mxCell>
        <mxCell id="ZWRmlS2SUOm_svUnGcR8-26" value="" style="rounded=0;whiteSpace=wrap;html=1;" vertex="1" parent="1">
          <mxGeometry x="800" y="40" width="360" height="166" as="geometry" />
        </mxCell>
        <mxCell id="ZWRmlS2SUOm_svUnGcR8-27" value="Monitoreo" style="text;html=1;align=center;verticalAlign=middle;whiteSpace=wrap;rounded=0;" vertex="1" parent="1">
          <mxGeometry x="810" y="58.80000000000001" width="140" height="30" as="geometry" />
        </mxCell>
        <mxCell id="ZWRmlS2SUOm_svUnGcR8-29" value="" style="endArrow=classic;startArrow=classic;html=1;rounded=0;exitX=1;exitY=0.5;exitDx=0;exitDy=0;entryX=0.941;entryY=1;entryDx=0;entryDy=0;entryPerimeter=0;" edge="1" parent="1" source="ZWRmlS2SUOm_svUnGcR8-4" target="ZWRmlS2SUOm_svUnGcR8-12">
          <mxGeometry width="50" height="50" relative="1" as="geometry">
            <mxPoint x="770" y="430" as="sourcePoint" />
            <mxPoint x="820" y="380" as="targetPoint" />
          </mxGeometry>
        </mxCell>
        <mxCell id="ZWRmlS2SUOm_svUnGcR8-30" value="" style="endArrow=classic;startArrow=classic;html=1;rounded=0;exitX=0.571;exitY=-0.011;exitDx=0;exitDy=0;exitPerimeter=0;entryX=0.036;entryY=0.035;entryDx=0;entryDy=0;entryPerimeter=0;" edge="1" parent="1" source="ZWRmlS2SUOm_svUnGcR8-12" target="ZWRmlS2SUOm_svUnGcR8-28">
          <mxGeometry width="50" height="50" relative="1" as="geometry">
            <mxPoint x="770" y="430" as="sourcePoint" />
            <mxPoint x="820" y="380" as="targetPoint" />
          </mxGeometry>
        </mxCell>
        <mxCell id="ZWRmlS2SUOm_svUnGcR8-34" value="" style="shape=image;verticalLabelPosition=bottom;labelBackgroundColor=default;verticalAlign=top;aspect=fixed;imageAspect=0;image=https://www.skedler.com/blog/wp-content/uploads/2021/08/grafana-logo.png;" vertex="1" parent="1">
          <mxGeometry x="820" y="91" width="140" height="70" as="geometry" />
        </mxCell>
        <mxCell id="ZWRmlS2SUOm_svUnGcR8-35" value="" style="shape=image;verticalLabelPosition=bottom;labelBackgroundColor=default;verticalAlign=top;aspect=fixed;imageAspect=0;image=https://miro.medium.com/v2/resize:fit:700/1*SW3lqH4V0J0suyzkZ6FcFQ.png;" vertex="1" parent="1">
          <mxGeometry x="1008" y="80.30000000000001" width="140" height="81.4" as="geometry" />
        </mxCell>
        <mxCell id="ZWRmlS2SUOm_svUnGcR8-36" value="CONFIG SERVICE" style="rounded=1;whiteSpace=wrap;html=1;" vertex="1" parent="1">
          <mxGeometry x="300" y="270" width="170" height="100" as="geometry" />
        </mxCell>
        <mxCell id="ZWRmlS2SUOm_svUnGcR8-37" value="" style="image;sketch=0;aspect=fixed;html=1;points=[];align=center;fontSize=12;image=img/lib/mscae/Docker.svg;" vertex="1" parent="1">
          <mxGeometry x="430" y="270" width="40" height="32.8" as="geometry" />
        </mxCell>
        <mxCell id="ZWRmlS2SUOm_svUnGcR8-38" value="" style="image;aspect=fixed;html=1;points=[];align=center;fontSize=12;image=img/lib/azure2/compute/Azure_Spring_Cloud.svg;" vertex="1" parent="1">
          <mxGeometry x="365" y="360" width="40" height="40" as="geometry" />
        </mxCell>
        <mxCell id="ZWRmlS2SUOm_svUnGcR8-39" value="" style="rounded=1;whiteSpace=wrap;html=1;" vertex="1" parent="1">
          <mxGeometry x="285" y="460" width="455" height="130" as="geometry" />
        </mxCell>
        <mxCell id="ZWRmlS2SUOm_svUnGcR8-40" value="" style="sketch=0;outlineConnect=0;fontColor=#232F3E;gradientColor=none;fillColor=#C925D1;strokeColor=none;dashed=0;verticalLabelPosition=bottom;verticalAlign=top;align=center;html=1;fontSize=12;fontStyle=0;aspect=fixed;pointerEvents=1;shape=mxgraph.aws4.rds_mysql_instance;" vertex="1" parent="1">
          <mxGeometry x="473.5" y="486" width="78" height="78" as="geometry" />
        </mxCell>
        <mxCell id="ZWRmlS2SUOm_svUnGcR8-41" value="Capa de Datos" style="text;html=1;align=center;verticalAlign=middle;whiteSpace=wrap;rounded=0;" vertex="1" parent="1">
          <mxGeometry x="290" y="440" width="140" height="30" as="geometry" />
        </mxCell>
        <mxCell id="ZWRmlS2SUOm_svUnGcR8-42" value="" style="endArrow=classic;startArrow=classic;html=1;rounded=0;exitX=0.5;exitY=0;exitDx=0;exitDy=0;" edge="1" parent="1" source="ZWRmlS2SUOm_svUnGcR8-39" target="ZWRmlS2SUOm_svUnGcR8-28">
          <mxGeometry width="50" height="50" relative="1" as="geometry">
            <mxPoint x="780" y="430" as="sourcePoint" />
            <mxPoint x="830" y="380" as="targetPoint" />
          </mxGeometry>
        </mxCell>
      </root>
    </mxGraphModel>
  </diagram>
</mxfile>
